<svg width="24" height="29" viewBox="0 0 24 29" fill="none" xmlns="http://www.w3.org/2000/svg">
<path fill-rule="evenodd" clip-rule="evenodd" d="M17.8187 6.57715C19.7269 6.57715 21.7483 7.62283 23.1869 9.42676C18.4707 12.0273 19.2347 18.8029 24.0004 20.6152C23.3452 22.0755 23.0298 22.7281 22.1859 24.0215C21.0084 25.8272 19.3478 28.0762 17.2884 28.0928C15.4607 28.1126 14.9893 26.8944 12.5082 26.9092C10.0268 26.9224 9.50916 28.1158 7.6781 28.0977C5.62051 28.0794 4.04694 26.0508 2.8695 24.2451C-0.424686 19.1997 -0.771094 13.2766 1.26013 10.126C2.70527 7.88904 4.9849 6.5801 7.12634 6.58008C9.30556 6.58008 10.677 7.7832 12.4818 7.7832C14.2323 7.78313 15.2981 6.57719 17.8187 6.57715ZM17.267 0C17.5182 1.70658 16.8239 3.37862 15.9076 4.56152C14.9272 5.83029 13.2372 6.81187 11.6 6.76074C11.3011 5.12685 12.0663 3.44321 12.9974 2.31152C14.0189 1.06256 15.7693 0.104119 17.267 0Z" fill="#0B0B0A"/>
</svg>
