<svg width="25" height="25" viewBox="0 0 25 25" fill="none" xmlns="http://www.w3.org/2000/svg">
<path d="M12.3996 4.79467C14.728 4.79467 16.2987 5.80044 17.1943 6.64089L20.6938 3.224C18.5445 1.22622 15.7476 0 12.3996 0C7.54982 0 3.36138 2.78311 1.32227 6.83378L5.3316 9.94755C6.33738 6.95778 9.12049 4.79467 12.3996 4.79467Z" fill="#EA4335"/>
<path d="M24.3034 12.6757C24.3034 11.6562 24.2207 10.9122 24.0416 10.1406H12.3994V14.7424H19.2332C19.0954 15.886 18.3514 17.6082 16.6981 18.7655L20.611 21.7966C22.9532 19.6335 24.3034 16.4508 24.3034 12.6757Z" fill="#4285F4"/>
<path d="M5.34578 14.8527C5.084 14.0811 4.93245 13.2544 4.93245 12.4002C4.93245 11.546 5.084 10.7193 5.332 9.94776L1.32267 6.83398C0.482222 8.51487 0 10.4024 0 12.4002C0 14.398 0.482222 16.2855 1.32267 17.9664L5.34578 14.8527Z" fill="#FBBC05"/>
<path d="M12.3995 24.8001C15.7475 24.8001 18.5582 23.6979 20.611 21.7965L16.6982 18.7654C15.651 19.4956 14.2457 20.0054 12.3995 20.0054C9.12038 20.0054 6.33727 17.8423 5.34527 14.8525L1.33594 17.9663C3.37505 22.017 7.54971 24.8001 12.3995 24.8001Z" fill="#34A853"/>
</svg>
